<svg width="551" height="551" viewBox="0 0 551 551" fill="none" xmlns="http://www.w3.org/2000/svg">
<path d="M551 421.405H0V421.68H551V421.405Z" fill="#EBEBEB"/>
<path d="M495.79 439.136H459.292V439.411H495.79V439.136Z" fill="#EBEBEB"/>
<path d="M365.005 442.134H355.428V442.409H365.005V442.134Z" fill="#EBEBEB"/>
<path d="M458.189 428.909H437.042V429.185H458.189V428.909Z" fill="#EBEBEB"/>
<path d="M105.406 430.761H57.811V431.036H105.406V430.761Z" fill="#EBEBEB"/>
<path d="M122.201 430.761H115.225V431.036H122.201V430.761Z" fill="#EBEBEB"/>
<path d="M248.115 435.411H144.88V435.687H248.115V435.411Z" fill="#EBEBEB"/>
<path d="M261.174 372.256H48.3888C46.7219 372.253 45.1242 371.589 43.9465 370.409C42.7689 369.229 42.1074 367.63 42.1074 365.963V66.8474C42.1219 65.19 42.7898 63.6053 43.9659 62.4375C45.142 61.2696 46.7314 60.6129 48.3888 60.6101H261.174C262.843 60.6101 264.443 61.2731 265.623 62.4531C266.803 63.6332 267.466 65.2337 267.466 66.9025V365.963C267.466 367.632 266.803 369.233 265.623 370.413C264.443 371.593 262.843 372.256 261.174 372.256ZM48.3888 60.8305C46.7949 60.8334 45.2673 61.4686 44.1413 62.5967C43.0153 63.7248 42.3829 65.2535 42.3829 66.8474V365.963C42.3829 367.557 43.0153 369.086 44.1413 370.214C45.2673 371.342 46.7949 371.977 48.3888 371.98H261.174C262.769 371.977 264.298 371.342 265.425 370.215C266.553 369.087 267.188 367.558 267.191 365.963V66.8474C267.188 65.2525 266.553 63.7238 265.425 62.596C264.298 61.4683 262.769 60.8334 261.174 60.8305H48.3888Z" fill="#EBEBEB"/>
<path d="M499.548 372.256H286.751C285.083 372.253 283.485 371.589 282.305 370.409C281.126 369.23 280.462 367.631 280.459 365.963V66.8474C280.476 65.189 281.147 63.6043 282.325 62.4368C283.502 61.2692 285.093 60.6129 286.751 60.6101H499.548C501.203 60.6158 502.79 61.2738 503.963 62.4413C505.137 63.6089 505.803 65.192 505.818 66.8474V365.963C505.818 367.628 505.158 369.225 503.983 370.405C502.807 371.584 501.213 372.25 499.548 372.256ZM286.751 60.8305C285.157 60.8334 283.628 61.4683 282.5 62.596C281.372 63.7238 280.737 65.2525 280.734 66.8474V365.963C280.737 367.558 281.372 369.087 282.5 370.215C283.628 371.342 285.157 371.977 286.751 371.98H499.548C501.142 371.977 502.671 371.342 503.799 370.215C504.927 369.087 505.562 367.558 505.565 365.963V66.8474C505.562 65.2525 504.927 63.7238 503.799 62.596C502.671 61.4683 501.142 60.8334 499.548 60.8305H286.751Z" fill="#EBEBEB"/>
<path d="M172.485 322.357L157.222 335.118L178.965 366.724L196.332 357.026C205.642 365.967 216.555 373.071 228.499 377.964L226.736 397.723L264.48 404.677L269.891 385.59C282.776 385.296 295.488 382.566 307.359 377.545L320.12 392.808L351.725 371.066L342.05 353.742C350.993 344.438 358.097 333.528 362.988 321.586L382.735 323.349L389.711 285.627L370.624 280.206C370.323 267.322 367.593 254.61 362.58 242.738L377.843 229.976L356.1 198.382L338.722 208.069C329.415 199.129 318.506 192.025 306.565 187.131L308.328 167.372L270.607 160.407L265.196 179.483C252.313 179.789 239.602 182.518 227.728 187.527L214.89 172.199L183.306 193.952L192.993 211.32C184.053 220.63 176.949 231.543 172.055 243.487L152.296 241.724L145.332 279.445L164.407 284.856C164.713 297.754 167.454 310.477 172.485 322.357ZM216.466 273.065C218.332 262.966 223.152 253.647 230.315 246.287C237.478 238.927 246.662 233.857 256.707 231.717C266.751 229.577 277.205 230.463 286.746 234.265C296.286 238.066 304.486 244.611 310.307 253.072C316.128 261.533 319.309 271.53 319.448 281.799C319.588 292.068 316.679 302.148 311.089 310.764C305.5 319.38 297.481 326.144 288.047 330.203C278.613 334.261 268.187 335.431 258.088 333.564C244.546 331.061 232.553 323.281 224.747 311.935C216.941 300.589 213.962 286.607 216.466 273.065Z" fill="#051522"/>
<path d="M426.893 302.863L438.816 305.067L440.524 299.039C444.601 298.941 448.624 298.077 452.382 296.493L456.415 301.32L466.41 294.444L463.347 288.934C466.173 285.995 468.417 282.547 469.959 278.773L476.207 279.324L478.411 267.411L472.372 265.692C472.282 261.614 471.418 257.59 469.826 253.835L474.653 249.802L467.777 239.817L462.267 242.881C459.323 240.061 455.877 237.818 452.106 236.269L452.657 230.032L440.734 227.828L439.026 233.856C434.949 233.955 430.927 234.818 427.168 236.401L423.168 231.574L413.173 238.451L416.236 243.961C413.41 246.899 411.166 250.347 409.624 254.121L403.376 253.57L401.172 265.483L407.2 267.202C407.295 271.28 408.159 275.302 409.745 279.06L404.919 283.093L411.795 293.077L417.305 290.014C420.247 292.84 423.699 295.084 427.477 296.626L426.893 302.863ZM423.642 263.466C424.23 260.272 425.753 257.324 428.017 254.995C430.281 252.666 433.185 251.061 436.362 250.383C439.539 249.705 442.845 249.984 445.863 251.185C448.881 252.387 451.475 254.456 453.316 257.132C455.158 259.808 456.164 262.97 456.208 266.218C456.252 269.466 455.332 272.654 453.564 275.379C451.796 278.103 449.259 280.243 446.275 281.526C443.291 282.809 439.993 283.178 436.8 282.586C432.522 281.791 428.734 279.331 426.267 275.747C423.801 272.162 422.856 267.746 423.642 263.466Z" fill="#7D8488"/>
<path d="M92.2373 336.815L101.318 338.501L102.629 333.906C105.732 333.827 108.793 333.169 111.654 331.967L114.729 335.636L122.344 330.402L120.008 326.192C122.157 323.961 123.865 321.343 125.044 318.478L129.804 318.897L131.479 309.816L126.884 308.56C126.816 305.452 126.158 302.386 124.945 299.524L128.625 296.449L123.38 288.845L119.203 291.182C116.969 289.033 114.353 287.321 111.489 286.134L111.919 281.385L102.827 279.699L101.527 284.294C98.4206 284.373 95.3561 285.031 92.4907 286.234L89.4272 282.564L81.8123 287.798L84.1486 291.986C81.9984 294.217 80.2896 296.834 79.1124 299.7L74.3518 299.281L72.6768 308.362L77.239 309.662C77.3074 312.77 77.9656 315.836 79.1786 318.699L75.4979 321.784L80.7324 329.388L84.92 327.063C87.1553 329.207 89.7715 330.915 92.634 332.099L92.2373 336.815ZM89.7688 306.808C90.2196 304.378 91.3806 302.137 93.1051 300.367C94.8297 298.597 97.0402 297.378 99.4574 296.864C101.875 296.35 104.39 296.565 106.685 297.48C108.981 298.395 110.953 299.971 112.353 302.007C113.753 304.043 114.518 306.449 114.551 308.92C114.584 311.391 113.884 313.816 112.539 315.889C111.194 317.962 109.265 319.59 106.995 320.567C104.725 321.544 102.216 321.825 99.786 321.376C96.5265 320.771 93.6405 318.897 91.7622 316.165C89.8839 313.434 89.1669 310.068 89.7688 306.808Z" fill="#7D8488"/>
<path d="M254.397 134.444L261.273 135.711L262.276 132.24C264.63 132.193 266.953 131.695 269.119 130.774L271.444 133.563L277.197 129.595L275.434 126.433C277.061 124.735 278.355 122.746 279.247 120.57L282.839 120.89L284.106 114.024L280.635 113.032C280.577 110.683 280.08 108.366 279.17 106.2L281.947 103.875L277.99 98.1222L274.828 99.8854C273.13 98.2577 271.141 96.9642 268.965 96.0725L269.285 92.48L262.408 91.2017L261.427 94.684C259.077 94.7301 256.757 95.2276 254.595 96.1496L252.27 93.3616L246.506 97.3288L248.28 100.492C246.65 102.187 245.356 104.176 244.468 106.354L240.864 106.035L239.597 112.9L243.068 113.892C243.124 116.241 243.621 118.559 244.534 120.724L241.757 123.049L245.724 128.802L248.887 127.039C250.579 128.668 252.564 129.962 254.738 130.852L254.397 134.444ZM252.534 111.732C252.875 109.893 253.753 108.197 255.057 106.857C256.361 105.518 258.034 104.595 259.862 104.206C261.691 103.816 263.594 103.978 265.331 104.67C267.068 105.362 268.561 106.554 269.621 108.094C270.681 109.635 271.26 111.455 271.286 113.324C271.311 115.194 270.782 117.029 269.764 118.598C268.747 120.167 267.287 121.399 265.57 122.138C263.853 122.878 261.955 123.091 260.116 122.752C257.653 122.297 255.472 120.883 254.051 118.821C252.629 116.759 252.084 114.217 252.534 111.754V111.732Z" fill="#F0F0F0"/>
<path d="M368.608 189.753L373.192 190.591L373.843 188.277C375.411 188.239 376.959 187.907 378.405 187.296L379.959 189.158L383.794 186.514L382.615 184.398C383.701 183.269 384.565 181.946 385.16 180.497L387.562 180.706L388.411 176.122L386.086 175.461C386.051 173.896 385.722 172.352 385.116 170.909L386.967 169.355L384.323 165.52L382.218 166.7C381.083 165.615 379.757 164.752 378.306 164.154L378.515 161.752L373.931 160.903L373.281 163.228C371.712 163.262 370.165 163.591 368.718 164.198L367.164 162.347L363.33 164.992L364.509 167.096C363.424 168.231 362.561 169.557 361.963 171.008L359.561 170.799L358.723 175.372L361.037 176.034C361.069 177.603 361.402 179.152 362.018 180.596L360.156 182.139L362.801 185.985L364.916 184.805C366.045 185.892 367.368 186.756 368.817 187.351L368.608 189.753ZM367.363 174.601C367.589 173.372 368.174 172.238 369.045 171.342C369.915 170.446 371.032 169.829 372.254 169.568C373.476 169.307 374.748 169.414 375.908 169.876C377.069 170.338 378.067 171.134 378.775 172.163C379.483 173.192 379.87 174.409 379.887 175.658C379.904 176.907 379.55 178.133 378.87 179.181C378.189 180.229 377.214 181.051 376.066 181.545C374.918 182.038 373.649 182.179 372.421 181.951C370.776 181.646 369.32 180.701 368.371 179.322C367.423 177.944 367.06 176.246 367.363 174.601Z" fill="#F0F0F0"/>
<path d="M157.311 134.521L161.895 135.37L162.545 133.056C164.113 133.013 165.66 132.68 167.107 132.075L168.661 133.926L172.496 131.281L171.317 129.177C172.404 128.044 173.267 126.717 173.863 125.264L176.265 125.485L177.114 120.901L174.788 120.239C174.754 118.671 174.425 117.124 173.819 115.677L175.67 114.134L173.025 110.288L170.909 111.467C169.783 110.381 168.459 109.52 167.008 108.933L167.218 106.53L162.633 105.682L161.994 107.996C160.425 108.033 158.877 108.366 157.432 108.977L155.878 107.126L152.076 109.759L153.255 111.875C152.169 113.008 151.305 114.335 150.71 115.787L148.307 115.567L147.47 120.151L149.784 120.812C149.816 122.378 150.149 123.923 150.765 125.364L148.902 126.917L151.547 130.763L153.663 129.584C154.792 130.667 156.116 131.527 157.564 132.119L157.311 134.521ZM156.065 119.38C156.291 118.151 156.877 117.017 157.747 116.121C158.618 115.225 159.735 114.607 160.957 114.346C162.178 114.085 163.45 114.193 164.611 114.655C165.772 115.117 166.769 115.913 167.477 116.942C168.186 117.971 168.573 119.187 168.59 120.437C168.606 121.686 168.252 122.912 167.572 123.96C166.892 125.008 165.916 125.83 164.768 126.323C163.62 126.816 162.352 126.958 161.124 126.73C159.479 126.425 158.022 125.479 157.074 124.101C156.126 122.723 155.763 121.025 156.065 119.38Z" fill="#F0F0F0"/>
<path d="M361.037 378.824C361.096 381.56 361.675 384.261 362.745 386.78L359.505 389.491L364.123 396.18L367.803 394.13C369.781 396.015 372.095 397.51 374.625 398.538L374.25 402.726L382.251 404.203L383.353 400.158C386.084 400.088 388.779 399.509 391.298 398.45L394.009 401.679L400.709 397.073L398.703 393.414C400.589 391.438 402.085 389.124 403.111 386.593L407.299 386.967L408.842 378.978L404.797 377.876C404.739 375.139 404.159 372.439 403.089 369.919L406.329 367.22L401.723 360.519L397.987 362.558C396.017 360.67 393.706 359.174 391.177 358.15L391.54 353.952L383.551 352.475L382.449 356.519C379.714 356.59 377.016 357.169 374.492 358.227L371.782 354.998L365.081 359.605L367.142 363.285C365.257 365.262 363.761 367.576 362.734 370.107L358.547 369.732L357.048 377.678L361.037 378.824ZM372.057 376.333C372.45 374.187 373.47 372.207 374.99 370.641C376.509 369.076 378.459 367.997 380.592 367.541C382.725 367.084 384.945 367.271 386.972 368.078C388.998 368.884 390.74 370.274 391.976 372.071C393.213 373.869 393.888 375.992 393.916 378.173C393.945 380.354 393.325 382.495 392.136 384.324C390.947 386.152 389.242 387.587 387.237 388.446C385.232 389.305 383.017 389.55 380.873 389.149C378.009 388.611 375.475 386.961 373.825 384.559C372.175 382.157 371.543 379.2 372.068 376.333H372.057Z" fill="#F0F0F0"/>
<path d="M430.254 331.372L417.945 335.879L430.254 340.353V344.926L412.622 338.237V333.432L430.254 326.743V331.372Z" fill="#E0E0E0"/>
<path d="M443.5 317.685H448.646L436.447 352.519H431.301L443.5 317.685Z" fill="#E0E0E0"/>
<path d="M466.917 333.476V338.314L449.285 345.003V340.386L461.594 335.912L449.285 331.405V326.82L466.917 333.476Z" fill="#E0E0E0"/>
<path d="M124.349 390.196C126.113 390.725 126.928 391.838 126.928 394.494V400.632C126.877 401.014 126.913 401.402 127.035 401.768C127.157 402.133 127.361 402.466 127.631 402.74C127.901 403.014 128.23 403.223 128.594 403.351C128.957 403.478 129.345 403.521 129.727 403.475H130.421V408.159H128.217C123.413 408.159 120.955 405.701 120.955 401.282V394.34C120.955 393.106 120.305 392.533 119.269 392.533H118.002V387.904H119.269C120.305 387.904 120.955 387.331 120.955 386.097V379.088C120.955 374.68 123.413 372.223 128.217 372.223H130.421V376.884H129.727C129.345 376.839 128.957 376.881 128.594 377.009C128.23 377.136 127.901 377.345 127.631 377.62C127.361 377.894 127.157 378.227 127.035 378.592C126.913 378.957 126.877 379.346 126.928 379.727V385.865C126.928 388.543 126.113 389.656 124.349 390.196Z" fill="#E0E0E0"/>
<path d="M154.897 387.904V392.588H153.63C153.392 392.567 153.152 392.6 152.929 392.685C152.706 392.77 152.505 392.905 152.342 393.079C152.178 393.253 152.057 393.462 151.986 393.69C151.915 393.918 151.897 394.159 151.933 394.395V401.338C151.933 405.746 149.475 408.214 144.682 408.214H142.478V403.531H143.172C143.554 403.576 143.942 403.533 144.305 403.406C144.669 403.278 144.998 403.069 145.268 402.795C145.538 402.521 145.742 402.188 145.864 401.823C145.986 401.457 146.022 401.069 145.971 400.687V394.516C145.971 391.86 146.775 390.747 148.539 390.218C146.775 389.678 145.971 388.565 145.971 385.91V379.749C146.027 379.364 145.993 378.971 145.872 378.601C145.75 378.231 145.545 377.894 145.272 377.616C144.999 377.339 144.665 377.128 144.297 377.001C143.929 376.874 143.536 376.834 143.15 376.884H142.456V372.201H144.66C149.453 372.201 151.911 374.658 151.911 379.066V386.02C151.875 386.256 151.893 386.497 151.964 386.725C152.035 386.953 152.156 387.162 152.32 387.336C152.483 387.51 152.684 387.645 152.907 387.73C153.13 387.815 153.37 387.848 153.608 387.827L154.897 387.904Z" fill="#E0E0E0"/>
<path d="M108.536 166.545C108.536 158.986 114.333 153.586 122.135 153.586C124.073 153.499 126.006 153.851 127.79 154.614C129.573 155.377 131.162 156.532 132.439 157.994L128.714 161.421C127.95 160.494 126.988 159.75 125.899 159.243C124.811 158.736 123.622 158.478 122.421 158.49C121.344 158.45 120.269 158.628 119.261 159.012C118.254 159.397 117.334 159.981 116.557 160.73C115.781 161.478 115.163 162.376 114.741 163.368C114.319 164.361 114.101 165.428 114.101 166.507C114.101 167.585 114.319 168.653 114.741 169.645C115.163 170.638 115.781 171.535 116.557 172.284C117.334 173.032 118.254 173.616 119.261 174.001C120.269 174.386 121.344 174.564 122.421 174.524C123.627 174.537 124.82 174.276 125.91 173.761C127 173.245 127.959 172.489 128.714 171.548L132.439 174.987C131.168 176.468 129.577 177.64 127.786 178.416C125.995 179.191 124.051 179.548 122.102 179.461C114.333 179.494 108.536 174.116 108.536 166.545Z" fill="#ABB7BB"/>
<path d="M152.417 168.727H146.191V174.81H141.574V168.727H135.392V164.319H141.574V158.225H146.191V164.319H152.417V168.727Z" fill="#ABB7BB"/>
<path d="M174.116 168.727H167.89V174.81H163.272V168.727H157.079V164.319H163.272V158.225H167.89V164.319H174.116V168.727Z" fill="#ABB7BB"/>
<path d="M200.63 292.724L204.244 288.383C205.776 290.432 207.473 291.479 209.479 291.479C212.102 291.479 213.468 289.903 213.468 286.807V273.406H203.55V268.172H219.937V286.443C219.937 293.408 216.433 296.835 209.788 296.835C208.048 296.9 206.316 296.563 204.728 295.85C203.14 295.138 201.737 294.068 200.63 292.724Z" fill="#ABB7BB"/>
<path d="M223.86 294.333L225.91 289.826C228.187 291.183 230.786 291.906 233.437 291.92C236.335 291.92 237.426 291.16 237.426 289.947C237.426 286.41 224.345 290.025 224.345 281.374C224.345 277.263 228.048 274.365 234.362 274.365C237.256 274.309 240.119 274.96 242.705 276.261L240.611 280.735C238.707 279.655 236.551 279.096 234.362 279.115C231.552 279.115 230.34 280.007 230.34 281.131C230.34 284.834 243.421 281.253 243.421 289.782C243.421 293.815 239.685 296.67 233.194 296.67C229.932 296.725 226.712 295.919 223.86 294.333Z" fill="#ABB7BB"/>
<path d="M275.5 471.171C393.505 471.171 489.167 465.586 489.167 458.697C489.167 451.807 393.505 446.222 275.5 446.222C157.495 446.222 61.833 451.807 61.833 458.697C61.833 465.586 157.495 471.171 275.5 471.171Z" fill="#F5F5F5"/>
<path d="M359.175 102.497H326.302C324.921 102.497 323.801 103.617 323.801 104.999V137.871C323.801 139.253 324.921 140.373 326.302 140.373H359.175C360.557 140.373 361.677 139.253 361.677 137.871V104.999C361.677 103.617 360.557 102.497 359.175 102.497Z" fill="#EFF5F5"/>
<g opacity="0.4">
<path d="M359.175 102.497H326.302C324.921 102.497 323.801 103.617 323.801 104.999V137.871C323.801 139.253 324.921 140.373 326.302 140.373H359.175C360.557 140.373 361.677 139.253 361.677 137.871V104.999C361.677 103.617 360.557 102.497 359.175 102.497Z" fill="#455A64"/>
</g>
<path d="M337.653 119.435L331.041 121.848L337.653 124.24V126.73L328.264 123.149V120.592L337.653 117.01V119.435Z" fill="#455A64"/>
<path d="M344.728 112.14H347.472L340.948 130.73H338.204L344.728 112.14Z" fill="#455A64"/>
<path d="M357.213 120.57V123.127L347.824 126.73V124.262L354.436 121.87L347.824 119.457V117.01L357.213 120.57Z" fill="#455A64"/>
<path d="M332.143 147.293V156.484H330.016V152.704H325.829V156.484H323.702V147.282H325.829V150.974H330.016V147.348L332.143 147.293Z" fill="#263238"/>
<path d="M336.242 149.024H333.289V147.293H341.312V149.024H338.369V156.484H336.242V149.024Z" fill="#263238"/>
<path d="M350.844 156.484V150.974L348.133 155.525H347.13L344.43 151.117V156.484H342.436V147.282H344.199L347.637 153.002L351.031 147.282H352.783V156.484H350.844Z" fill="#263238"/>
<path d="M355.032 147.293H357.159V154.754H361.776V156.484H355.032V147.293Z" fill="#263238"/>
<g opacity="0.6">
<path d="M332.143 147.293V156.484H330.016V152.704H325.829V156.484H323.702V147.282H325.829V150.974H330.016V147.348L332.143 147.293Z" fill="#E5E5E5"/>
<path d="M336.242 149.023H333.289V147.293H341.312V149.023H338.369V156.484H336.242V149.023Z" fill="#E5E5E5"/>
<path d="M350.844 156.484V150.974L348.133 155.525H347.13L344.43 151.117V156.484H342.436V147.282H344.199L347.637 153.002L351.031 147.282H352.783V156.484H350.844Z" fill="#E5E5E5"/>
<path d="M355.032 147.293H357.159V154.754H361.776V156.484H355.032V147.293Z" fill="#E5E5E5"/>
</g>
<path d="M440.183 122.686H407.311C405.929 122.686 404.809 123.806 404.809 125.187V158.06C404.809 159.442 405.929 160.562 407.311 160.562H440.183C441.565 160.562 442.685 159.442 442.685 158.06V125.187C442.685 123.806 441.565 122.686 440.183 122.686Z" fill="#EFF5F5"/>
<g opacity="0.4">
<path d="M440.183 122.686H407.311C405.929 122.686 404.809 123.806 404.809 125.187V158.06C404.809 159.442 405.929 160.562 407.311 160.562H440.183C441.565 160.562 442.685 159.442 442.685 158.06V125.187C442.685 123.806 441.565 122.686 440.183 122.686Z" fill="#455A64"/>
</g>
<path d="M417.537 141.618C418.441 141.894 418.859 142.467 418.859 143.822V146.985C418.835 147.181 418.855 147.38 418.918 147.567C418.982 147.754 419.087 147.924 419.226 148.064C419.366 148.204 419.535 148.311 419.721 148.376C419.908 148.441 420.107 148.463 420.303 148.439H420.656V150.853H419.554C417.085 150.853 415.829 149.586 415.829 147.315V143.745C415.846 143.624 415.835 143.501 415.798 143.385C415.761 143.269 415.699 143.162 415.615 143.074C415.532 142.985 415.429 142.916 415.316 142.872C415.202 142.828 415.08 142.81 414.958 142.819H414.308V140.406H414.958C415.08 140.415 415.202 140.397 415.316 140.353C415.429 140.309 415.532 140.24 415.615 140.152C415.699 140.063 415.761 139.956 415.798 139.84C415.835 139.724 415.846 139.601 415.829 139.48V135.91C415.829 133.64 417.085 132.372 419.554 132.372H420.656V134.786H420.303C420.107 134.762 419.908 134.784 419.721 134.849C419.535 134.914 419.366 135.021 419.226 135.161C419.087 135.301 418.982 135.471 418.918 135.658C418.855 135.845 418.835 136.044 418.859 136.24V139.403C418.859 140.77 418.441 141.343 417.537 141.618Z" fill="#455A64"/>
<path d="M433.229 140.417V142.83H432.579C432.458 142.821 432.336 142.839 432.222 142.883C432.108 142.927 432.006 142.996 431.922 143.085C431.839 143.173 431.776 143.28 431.739 143.396C431.702 143.512 431.692 143.635 431.709 143.756V147.326C431.709 149.597 430.441 150.864 427.984 150.864H426.882V148.45H427.234C427.431 148.474 427.63 148.452 427.816 148.387C428.003 148.322 428.172 148.215 428.311 148.075C428.45 147.935 428.556 147.765 428.619 147.578C428.683 147.391 428.703 147.192 428.678 146.996V143.833C428.678 142.467 429.086 141.894 430.001 141.629C429.086 141.354 428.678 140.781 428.678 139.425V136.262C428.703 136.066 428.683 135.867 428.619 135.68C428.556 135.493 428.45 135.323 428.311 135.183C428.172 135.043 428.003 134.936 427.816 134.871C427.63 134.806 427.431 134.784 427.234 134.808H426.882V132.394H427.984C430.441 132.394 431.709 133.662 431.709 135.932V139.502C431.692 139.623 431.702 139.746 431.739 139.862C431.776 139.978 431.839 140.085 431.922 140.173C432.006 140.262 432.108 140.331 432.222 140.375C432.336 140.419 432.458 140.437 432.579 140.428L433.229 140.417Z" fill="#455A64"/>
<path d="M411.046 172.22C411.101 171.222 411.45 170.262 412.048 169.461C412.647 168.66 413.47 168.054 414.412 167.72C415.355 167.385 416.375 167.337 417.345 167.581C418.314 167.825 419.19 168.35 419.862 169.091L418.496 170.358C418.218 170.012 417.865 169.734 417.465 169.543C417.064 169.352 416.625 169.254 416.182 169.256C415.779 169.232 415.376 169.29 414.997 169.427C414.618 169.564 414.271 169.777 413.978 170.053C413.684 170.329 413.45 170.662 413.29 171.032C413.131 171.402 413.048 171.801 413.048 172.204C413.048 172.607 413.131 173.006 413.29 173.376C413.45 173.746 413.684 174.079 413.978 174.355C414.271 174.631 414.618 174.844 414.997 174.981C415.376 175.118 415.779 175.176 416.182 175.152C416.625 175.153 417.064 175.055 417.464 174.864C417.865 174.673 418.217 174.395 418.496 174.05L419.862 175.306C419.193 176.051 418.318 176.581 417.348 176.829C416.377 177.076 415.355 177.03 414.411 176.696C413.467 176.362 412.643 175.755 412.044 174.953C411.445 174.15 411.098 173.188 411.046 172.187V172.22Z" fill="#263238"/>
<path d="M420.435 175.923L421.151 174.314C422.049 174.927 423.107 175.26 424.193 175.273C425.449 175.273 425.967 174.854 425.967 174.292C425.967 172.562 420.611 173.752 420.611 170.336C420.611 168.771 421.879 167.46 424.49 167.46C425.609 167.441 426.713 167.723 427.686 168.275L427.036 169.895C426.26 169.441 425.379 169.194 424.479 169.179C423.223 169.179 422.727 169.642 422.727 170.226C422.727 171.923 428.083 170.755 428.083 174.127C428.083 175.67 426.805 176.981 424.182 176.981C422.855 177.013 421.55 176.644 420.435 175.923Z" fill="#263238"/>
<path d="M428.821 175.923L429.549 174.314C430.443 174.932 431.503 175.266 432.59 175.273C433.846 175.273 434.364 174.854 434.364 174.292C434.364 172.562 429.009 173.752 429.009 170.336C429.009 168.771 430.276 167.46 432.888 167.46C434.006 167.443 435.11 167.724 436.083 168.275L435.422 169.895C434.65 169.44 433.773 169.193 432.877 169.179C431.609 169.179 431.124 169.642 431.124 170.226C431.124 171.923 436.48 170.755 436.48 174.127C436.48 175.67 435.202 176.981 432.568 176.981C431.241 177.013 429.936 176.644 428.821 175.923Z" fill="#263238"/>
<g opacity="0.6">
<path d="M411.046 172.22C411.101 171.222 411.45 170.262 412.048 169.461C412.647 168.66 413.47 168.054 414.412 167.72C415.355 167.385 416.375 167.337 417.345 167.581C418.314 167.825 419.19 168.35 419.862 169.091L418.496 170.358C418.218 170.012 417.865 169.734 417.465 169.543C417.064 169.352 416.625 169.254 416.182 169.256C415.779 169.232 415.376 169.29 414.997 169.427C414.618 169.564 414.271 169.777 413.978 170.053C413.684 170.329 413.45 170.662 413.29 171.032C413.131 171.402 413.048 171.801 413.048 172.204C413.048 172.607 413.131 173.006 413.29 173.376C413.45 173.746 413.684 174.079 413.978 174.355C414.271 174.631 414.618 174.844 414.997 174.981C415.376 175.118 415.779 175.176 416.182 175.152C416.625 175.153 417.064 175.055 417.464 174.864C417.865 174.673 418.217 174.395 418.496 174.05L419.862 175.306C419.193 176.051 418.318 176.581 417.348 176.829C416.377 177.076 415.355 177.03 414.411 176.696C413.467 176.362 412.643 175.755 412.044 174.953C411.445 174.15 411.098 173.188 411.046 172.187V172.22Z" fill="#E5E5E5"/>
<path d="M420.436 175.923L421.152 174.314C422.049 174.927 423.107 175.26 424.193 175.273C425.45 175.273 425.968 174.854 425.968 174.292C425.968 172.562 420.612 173.752 420.612 170.336C420.612 168.771 421.879 167.46 424.491 167.46C425.61 167.441 426.714 167.723 427.687 168.275L427.037 169.895C426.26 169.441 425.38 169.194 424.48 169.179C423.224 169.179 422.728 169.642 422.728 170.226C422.728 171.923 428.083 170.755 428.083 174.127C428.083 175.67 426.805 176.981 424.182 176.981C422.856 177.013 421.55 176.644 420.436 175.923Z" fill="#E5E5E5"/>
<path d="M428.822 175.923L429.549 174.314C430.444 174.932 431.504 175.266 432.591 175.273C433.847 175.273 434.365 174.854 434.365 174.292C434.365 172.562 429.009 173.752 429.009 170.336C429.009 168.771 430.276 167.46 432.888 167.46C434.007 167.443 435.11 167.724 436.084 168.275L435.423 169.895C434.651 169.44 433.773 169.193 432.877 169.179C431.61 169.179 431.125 169.642 431.125 170.226C431.125 171.923 436.481 170.755 436.481 174.127C436.481 175.67 435.202 176.981 432.569 176.981C431.242 177.013 429.936 176.644 428.822 175.923Z" fill="#E5E5E5"/>
</g>
<path d="M298.708 118.994H163.702V216.719H298.708V118.994Z" fill="black"/>
<path opacity="0.9" d="M298.708 118.994H163.702V216.719H298.708V118.994Z" fill="white"/>
<path opacity="0.1" d="M182.502 118.994H163.702V216.719H182.502V118.994Z" fill="black"/>
<path d="M298.708 118.994H163.702V128.129H298.708V118.994Z" fill="#EFF5F5"/>
<g opacity="0.2">
<path d="M217.876 141.915H193.29C192.998 141.915 192.718 141.799 192.511 141.593C192.305 141.386 192.188 141.106 192.188 140.813C192.188 140.521 192.305 140.241 192.511 140.034C192.718 139.828 192.998 139.711 193.29 139.711H217.876C218.168 139.711 218.449 139.828 218.655 140.034C218.862 140.241 218.978 140.521 218.978 140.813C218.978 141.106 218.862 141.386 218.655 141.593C218.449 141.799 218.168 141.915 217.876 141.915Z" fill="black"/>
<path d="M272.194 141.915H224.422C224.13 141.915 223.85 141.799 223.643 141.593C223.436 141.386 223.32 141.106 223.32 140.813C223.32 140.521 223.436 140.241 223.643 140.034C223.85 139.828 224.13 139.711 224.422 139.711H272.194C272.486 139.711 272.767 139.828 272.973 140.034C273.18 140.241 273.296 140.521 273.296 140.813C273.296 141.106 273.18 141.386 272.973 141.593C272.767 141.799 272.486 141.915 272.194 141.915Z" fill="black"/>
<path d="M260.821 149.111H196.597C196.304 149.111 196.024 148.995 195.817 148.789C195.611 148.582 195.495 148.302 195.495 148.009C195.495 147.717 195.611 147.437 195.817 147.23C196.024 147.024 196.304 146.907 196.597 146.907H260.821C261.113 146.907 261.394 147.024 261.6 147.23C261.807 147.437 261.923 147.717 261.923 148.009C261.923 148.302 261.807 148.582 261.6 148.789C261.394 148.995 261.113 149.111 260.821 149.111Z" fill="black"/>
<path d="M234.66 156.297H193.29C192.998 156.297 192.718 156.18 192.511 155.974C192.305 155.767 192.188 155.487 192.188 155.195C192.188 154.902 192.305 154.622 192.511 154.415C192.718 154.209 192.998 154.093 193.29 154.093H234.66C234.952 154.093 235.232 154.209 235.439 154.415C235.645 154.622 235.762 154.902 235.762 155.195C235.762 155.487 235.645 155.767 235.439 155.974C235.232 156.18 234.952 156.297 234.66 156.297Z" fill="black"/>
<path d="M272.194 156.297H242.55C242.258 156.297 241.978 156.18 241.771 155.974C241.564 155.767 241.448 155.487 241.448 155.195C241.448 154.902 241.564 154.622 241.771 154.415C241.978 154.209 242.258 154.093 242.55 154.093H272.194C272.486 154.093 272.767 154.209 272.973 154.415C273.18 154.622 273.296 154.902 273.296 155.195C273.296 155.487 273.18 155.767 272.973 155.974C272.767 156.18 272.486 156.297 272.194 156.297Z" fill="black"/>
<path d="M216.135 163.493H193.29C192.998 163.493 192.718 163.376 192.511 163.17C192.305 162.963 192.188 162.683 192.188 162.391C192.188 162.098 192.305 161.818 192.511 161.611C192.718 161.405 192.998 161.289 193.29 161.289H216.135C216.427 161.289 216.708 161.405 216.914 161.611C217.121 161.818 217.237 162.098 217.237 162.391C217.237 162.683 217.121 162.963 216.914 163.17C216.708 163.376 216.427 163.493 216.135 163.493Z" fill="black"/>
<path d="M259.51 163.493H223.54C223.248 163.493 222.968 163.376 222.761 163.17C222.555 162.963 222.438 162.683 222.438 162.391C222.438 162.098 222.555 161.818 222.761 161.611C222.968 161.405 223.248 161.289 223.54 161.289H259.51C259.802 161.289 260.082 161.405 260.289 161.611C260.496 161.818 260.612 162.098 260.612 162.391C260.612 162.683 260.496 162.963 260.289 163.17C260.082 163.376 259.802 163.493 259.51 163.493Z" fill="black"/>
<path d="M227.331 170.689H196.597C196.304 170.689 196.024 170.573 195.817 170.366C195.611 170.159 195.495 169.879 195.495 169.587C195.495 169.294 195.611 169.014 195.817 168.807C196.024 168.601 196.304 168.485 196.597 168.485H227.331C227.624 168.485 227.904 168.601 228.111 168.807C228.317 169.014 228.433 169.294 228.433 169.587C228.433 169.879 228.317 170.159 228.111 170.366C227.904 170.573 227.624 170.689 227.331 170.689Z" fill="black"/>
<path d="M231.177 177.885H196.597C196.304 177.885 196.024 177.769 195.817 177.562C195.611 177.355 195.495 177.075 195.495 176.783C195.495 176.49 195.611 176.21 195.817 176.003C196.024 175.797 196.304 175.681 196.597 175.681H231.177C231.47 175.681 231.75 175.797 231.957 176.003C232.163 176.21 232.279 176.49 232.279 176.783C232.279 177.075 232.163 177.355 231.957 177.562C231.75 177.769 231.47 177.885 231.177 177.885Z" fill="black"/>
<path d="M272.194 177.885H236.93C236.637 177.885 236.357 177.769 236.15 177.562C235.944 177.355 235.828 177.075 235.828 176.783C235.828 176.49 235.944 176.21 236.15 176.003C236.357 175.797 236.637 175.681 236.93 175.681H272.194C272.486 175.681 272.766 175.797 272.973 176.003C273.18 176.21 273.296 176.49 273.296 176.783C273.296 177.075 273.18 177.355 272.973 177.562C272.766 177.769 272.486 177.885 272.194 177.885Z" fill="black"/>
<path d="M213.083 185.07H193.247C192.954 185.07 192.674 184.954 192.467 184.747C192.261 184.54 192.145 184.26 192.145 183.968C192.145 183.675 192.261 183.395 192.467 183.188C192.674 182.982 192.954 182.866 193.247 182.866H213.083C213.375 182.866 213.655 182.982 213.862 183.188C214.068 183.395 214.185 183.675 214.185 183.968C214.185 184.26 214.068 184.54 213.862 184.747C213.655 184.954 213.375 185.07 213.083 185.07Z" fill="black"/>
<path d="M272.194 185.07H219.838C219.546 185.07 219.265 184.954 219.059 184.747C218.852 184.54 218.736 184.26 218.736 183.968C218.736 183.675 218.852 183.395 219.059 183.188C219.265 182.982 219.546 182.866 219.838 182.866H272.194C272.486 182.866 272.766 182.982 272.973 183.188C273.18 183.395 273.296 183.675 273.296 183.968C273.296 184.26 273.18 184.54 272.973 184.747C272.766 184.954 272.486 185.07 272.194 185.07Z" fill="black"/>
<path d="M230.957 192.266H196.597C196.304 192.266 196.024 192.15 195.817 191.943C195.611 191.736 195.495 191.456 195.495 191.164C195.495 190.871 195.611 190.591 195.817 190.385C196.024 190.178 196.304 190.062 196.597 190.062H230.957C231.249 190.062 231.53 190.178 231.736 190.385C231.943 190.591 232.059 190.871 232.059 191.164C232.059 191.456 231.943 191.736 231.736 191.943C231.53 192.15 231.249 192.266 230.957 192.266Z" fill="black"/>
<path d="M257.989 192.266H235.75C235.458 192.266 235.178 192.15 234.971 191.943C234.765 191.736 234.648 191.456 234.648 191.164C234.648 190.871 234.765 190.591 234.971 190.385C235.178 190.178 235.458 190.062 235.75 190.062H257.989C258.281 190.062 258.561 190.178 258.768 190.385C258.975 190.591 259.091 190.871 259.091 191.164C259.091 191.456 258.975 191.736 258.768 191.943C258.561 192.15 258.281 192.266 257.989 192.266Z" fill="black"/>
<path d="M236.147 199.462H196.597C196.304 199.462 196.024 199.346 195.817 199.139C195.611 198.932 195.495 198.652 195.495 198.36C195.495 198.068 195.611 197.787 195.817 197.581C196.024 197.374 196.304 197.258 196.597 197.258H236.147C236.44 197.258 236.72 197.374 236.927 197.581C237.133 197.787 237.249 198.068 237.249 198.36C237.249 198.652 237.133 198.932 236.927 199.139C236.72 199.346 236.44 199.462 236.147 199.462Z" fill="black"/>
</g>
<path opacity="0.4" d="M292.901 125.507C293.941 125.507 294.785 124.663 294.785 123.622C294.785 122.581 293.941 121.738 292.901 121.738C291.86 121.738 291.016 122.581 291.016 123.622C291.016 124.663 291.86 125.507 292.901 125.507Z" fill="white"/>
<path opacity="0.4" d="M286.277 125.507C287.318 125.507 288.162 124.663 288.162 123.622C288.162 122.581 287.318 121.738 286.277 121.738C285.237 121.738 284.393 122.581 284.393 123.622C284.393 124.663 285.237 125.507 286.277 125.507Z" fill="white"/>
<path opacity="0.4" d="M279.666 125.507C280.706 125.507 281.55 124.663 281.55 123.622C281.55 122.581 280.706 121.738 279.666 121.738C278.625 121.738 277.781 122.581 277.781 123.622C277.781 124.663 278.625 125.507 279.666 125.507Z" fill="white"/>
<g opacity="0.2">
<path d="M173.433 141.915C173.141 141.915 172.86 141.799 172.654 141.593C172.447 141.386 172.331 141.106 172.331 140.813C172.331 140.521 172.447 140.241 172.654 140.034C172.86 139.828 173.141 139.711 173.433 139.711C173.725 139.711 174.006 139.828 174.212 140.034C174.419 140.241 174.535 140.521 174.535 140.813C174.535 141.106 174.419 141.386 174.212 141.593C174.006 141.799 173.725 141.915 173.433 141.915Z" fill="black"/>
<path d="M173.433 149.111C173.141 149.111 172.86 148.995 172.654 148.789C172.447 148.582 172.331 148.302 172.331 148.009C172.331 147.717 172.447 147.437 172.654 147.23C172.86 147.024 173.141 146.907 173.433 146.907C173.725 146.907 174.006 147.024 174.212 147.23C174.419 147.437 174.535 147.717 174.535 148.009C174.535 148.302 174.419 148.582 174.212 148.789C174.006 148.995 173.725 149.111 173.433 149.111Z" fill="black"/>
<path d="M173.433 156.297C173.141 156.297 172.86 156.18 172.654 155.974C172.447 155.767 172.331 155.487 172.331 155.195C172.331 154.902 172.447 154.622 172.654 154.415C172.86 154.209 173.141 154.093 173.433 154.093C173.725 154.093 174.006 154.209 174.212 154.415C174.419 154.622 174.535 154.902 174.535 155.195C174.535 155.487 174.419 155.767 174.212 155.974C174.006 156.18 173.725 156.297 173.433 156.297Z" fill="black"/>
<path d="M173.433 163.493C173.141 163.493 172.86 163.376 172.654 163.17C172.447 162.963 172.331 162.683 172.331 162.391C172.331 162.098 172.447 161.818 172.654 161.611C172.86 161.405 173.141 161.289 173.433 161.289C173.725 161.289 174.006 161.405 174.212 161.611C174.419 161.818 174.535 162.098 174.535 162.391C174.535 162.683 174.419 162.963 174.212 163.17C174.006 163.376 173.725 163.493 173.433 163.493Z" fill="black"/>
<path d="M173.433 170.689C173.141 170.689 172.86 170.573 172.654 170.366C172.447 170.159 172.331 169.879 172.331 169.587C172.331 169.294 172.447 169.014 172.654 168.807C172.86 168.601 173.141 168.485 173.433 168.485C173.725 168.485 174.006 168.601 174.212 168.807C174.419 169.014 174.535 169.294 174.535 169.587C174.535 169.879 174.419 170.159 174.212 170.366C174.006 170.573 173.725 170.689 173.433 170.689Z" fill="black"/>
<path d="M173.433 177.885C173.141 177.885 172.86 177.769 172.654 177.562C172.447 177.355 172.331 177.075 172.331 176.783C172.331 176.49 172.447 176.21 172.654 176.003C172.86 175.797 173.141 175.681 173.433 175.681C173.725 175.681 174.006 175.797 174.212 176.003C174.419 176.21 174.535 176.49 174.535 176.783C174.535 177.075 174.419 177.355 174.212 177.562C174.006 177.769 173.725 177.885 173.433 177.885Z" fill="black"/>
<path d="M173.433 185.07C173.141 185.07 172.86 184.954 172.654 184.747C172.447 184.54 172.331 184.26 172.331 183.968C172.331 183.675 172.447 183.395 172.654 183.188C172.86 182.982 173.141 182.866 173.433 182.866C173.725 182.866 174.006 182.982 174.212 183.188C174.419 183.395 174.535 183.675 174.535 183.968C174.535 184.26 174.419 184.54 174.212 184.747C174.006 184.954 173.725 185.07 173.433 185.07Z" fill="black"/>
<path d="M173.433 192.266C173.141 192.266 172.86 192.15 172.654 191.943C172.447 191.736 172.331 191.456 172.331 191.164C172.331 190.871 172.447 190.591 172.654 190.385C172.86 190.178 173.141 190.062 173.433 190.062C173.725 190.062 174.006 190.178 174.212 190.385C174.419 190.591 174.535 190.871 174.535 191.164C174.535 191.456 174.419 191.736 174.212 191.943C174.006 192.15 173.725 192.266 173.433 192.266Z" fill="black"/>
<path d="M173.433 199.462C173.141 199.462 172.86 199.346 172.654 199.139C172.447 198.932 172.331 198.652 172.331 198.36C172.331 198.068 172.447 197.787 172.654 197.581C172.86 197.374 173.141 197.258 173.433 197.258C173.725 197.258 174.006 197.374 174.212 197.581C174.419 197.787 174.535 198.068 174.535 198.36C174.535 198.652 174.419 198.932 174.212 199.139C174.006 199.346 173.725 199.462 173.433 199.462Z" fill="black"/>
</g>
<path d="M420.986 198.735H244.082V312.009H420.986V198.735Z" fill="#263238"/>
<path opacity="0.9" d="M420.986 198.735H244.082V312.009H420.986V198.735Z" fill="white"/>
<path opacity="0.1" d="M271.676 198.735H244.082V312.009H271.676V198.735Z" fill="black"/>
<path d="M420.986 198.735H244.082V207.87H420.986V198.735Z" fill="#EFF5F5"/>
<path d="M256.579 217.887L253.647 218.989L256.579 220.091V221.193L252.391 219.595V218.493L256.579 216.906V217.887Z" fill="white"/>
<path d="M259.741 214.625H260.965L258.055 222.924H256.832L259.741 214.625Z" fill="white"/>
<path d="M265.317 218.383V219.485L261.13 221.083V219.981L264.061 218.879L261.13 217.777V216.675L265.317 218.383Z" fill="white"/>
<g opacity="0.2">
<path d="M264.701 230.483H252.711C252.419 230.483 252.138 230.367 251.932 230.161C251.725 229.954 251.609 229.674 251.609 229.381C251.609 229.089 251.725 228.809 251.932 228.602C252.138 228.395 252.419 228.279 252.711 228.279H264.701C264.993 228.279 265.273 228.395 265.48 228.602C265.687 228.809 265.803 229.089 265.803 229.381C265.803 229.674 265.687 229.954 265.48 230.161C265.273 230.367 264.993 230.483 264.701 230.483Z" fill="black"/>
<path d="M264.701 237.668H252.711C252.419 237.668 252.138 237.552 251.932 237.346C251.725 237.139 251.609 236.859 251.609 236.566C251.609 236.274 251.725 235.994 251.932 235.787C252.138 235.58 252.419 235.464 252.711 235.464H264.701C264.993 235.464 265.273 235.58 265.48 235.787C265.687 235.994 265.803 236.274 265.803 236.566C265.803 236.859 265.687 237.139 265.48 237.346C265.273 237.552 264.993 237.668 264.701 237.668Z" fill="black"/>
<path d="M264.701 244.864H252.711C252.419 244.864 252.138 244.748 251.932 244.542C251.725 244.335 251.609 244.055 251.609 243.762C251.609 243.47 251.725 243.19 251.932 242.983C252.138 242.777 252.419 242.66 252.711 242.66H264.701C264.993 242.66 265.273 242.777 265.48 242.983C265.687 243.19 265.803 243.47 265.803 243.762C265.803 244.055 265.687 244.335 265.48 244.542C265.273 244.748 264.993 244.864 264.701 244.864Z" fill="black"/>
<path d="M264.701 252.06H252.711C252.419 252.06 252.138 251.944 251.932 251.738C251.725 251.531 251.609 251.251 251.609 250.958C251.609 250.666 251.725 250.386 251.932 250.179C252.138 249.973 252.419 249.856 252.711 249.856H264.701C264.993 249.856 265.273 249.973 265.48 250.179C265.687 250.386 265.803 250.666 265.803 250.958C265.803 251.251 265.687 251.531 265.48 251.738C265.273 251.944 264.993 252.06 264.701 252.06Z" fill="black"/>
<path d="M264.701 259.256H252.711C252.419 259.256 252.138 259.14 251.932 258.934C251.725 258.727 251.609 258.447 251.609 258.154C251.609 257.862 251.725 257.582 251.932 257.375C252.138 257.169 252.419 257.052 252.711 257.052H264.701C264.993 257.052 265.273 257.169 265.48 257.375C265.687 257.582 265.803 257.862 265.803 258.154C265.803 258.447 265.687 258.727 265.48 258.934C265.273 259.14 264.993 259.256 264.701 259.256Z" fill="black"/>
<path d="M264.701 266.442H252.711C252.419 266.442 252.138 266.325 251.932 266.119C251.725 265.912 251.609 265.632 251.609 265.34C251.609 265.047 251.725 264.767 251.932 264.56C252.138 264.354 252.419 264.238 252.711 264.238H264.701C264.993 264.238 265.273 264.354 265.48 264.56C265.687 264.767 265.803 265.047 265.803 265.34C265.803 265.632 265.687 265.912 265.48 266.119C265.273 266.325 264.993 266.442 264.701 266.442Z" fill="black"/>
<path d="M264.701 273.638H252.711C252.419 273.638 252.138 273.521 251.932 273.315C251.725 273.108 251.609 272.828 251.609 272.536C251.609 272.243 251.725 271.963 251.932 271.756C252.138 271.55 252.419 271.434 252.711 271.434H264.701C264.993 271.434 265.273 271.55 265.48 271.756C265.687 271.963 265.803 272.243 265.803 272.536C265.803 272.828 265.687 273.108 265.48 273.315C265.273 273.521 264.993 273.638 264.701 273.638Z" fill="black"/>
<path d="M264.701 280.834H252.711C252.419 280.834 252.138 280.718 251.932 280.511C251.725 280.304 251.609 280.024 251.609 279.732C251.609 279.439 251.725 279.159 251.932 278.952C252.138 278.746 252.419 278.63 252.711 278.63H264.701C264.993 278.63 265.273 278.746 265.48 278.952C265.687 279.159 265.803 279.439 265.803 279.732C265.803 280.024 265.687 280.304 265.48 280.511C265.273 280.718 264.993 280.834 264.701 280.834Z" fill="black"/>
<path d="M264.701 288.03H252.711C252.419 288.03 252.138 287.914 251.932 287.707C251.725 287.5 251.609 287.22 251.609 286.928C251.609 286.635 251.725 286.355 251.932 286.148C252.138 285.942 252.419 285.826 252.711 285.826H264.701C264.993 285.826 265.273 285.942 265.48 286.148C265.687 286.355 265.803 286.635 265.803 286.928C265.803 287.22 265.687 287.5 265.48 287.707C265.273 287.914 264.993 288.03 264.701 288.03Z" fill="black"/>
</g>
<path d="M299.359 230.483H274.773C274.481 230.483 274.2 230.367 273.994 230.161C273.787 229.954 273.671 229.674 273.671 229.381C273.671 229.089 273.787 228.809 273.994 228.602C274.2 228.395 274.481 228.279 274.773 228.279H299.359C299.651 228.279 299.931 228.395 300.138 228.602C300.344 228.809 300.461 229.089 300.461 229.381C300.461 229.674 300.344 229.954 300.138 230.161C299.931 230.367 299.651 230.483 299.359 230.483Z" fill="#EFF5F5"/>
<path d="M369.986 230.483H305.904C305.612 230.483 305.332 230.367 305.125 230.161C304.918 229.954 304.802 229.674 304.802 229.381C304.802 229.089 304.918 228.809 305.125 228.602C305.332 228.395 305.612 228.279 305.904 228.279H369.986C370.278 228.279 370.558 228.395 370.765 228.602C370.971 228.809 371.088 229.089 371.088 229.381C371.088 229.674 370.971 229.954 370.765 230.161C370.558 230.367 370.278 230.483 369.986 230.483Z" fill="#263238"/>
<g opacity="0.2">
<path d="M399.233 230.483H380.664C380.372 230.483 380.091 230.367 379.885 230.161C379.678 229.954 379.562 229.674 379.562 229.381C379.562 229.089 379.678 228.809 379.885 228.602C380.091 228.395 380.372 228.279 380.664 228.279H399.233C399.525 228.279 399.805 228.395 400.012 228.602C400.219 228.809 400.335 229.089 400.335 229.381C400.335 229.674 400.219 229.954 400.012 230.161C399.805 230.367 399.525 230.483 399.233 230.483Z" fill="#263238"/>
</g>
<g opacity="0.2">
<path d="M342.303 237.668H278.079C277.786 237.668 277.506 237.552 277.299 237.346C277.093 237.139 276.977 236.859 276.977 236.566C276.977 236.274 277.093 235.994 277.299 235.787C277.506 235.58 277.786 235.464 278.079 235.464H342.303C342.595 235.464 342.876 235.58 343.082 235.787C343.289 235.994 343.405 236.274 343.405 236.566C343.405 236.859 343.289 237.139 343.082 237.346C342.876 237.552 342.595 237.668 342.303 237.668Z" fill="#263238"/>
</g>
<path d="M408.048 237.668H348.232C347.94 237.668 347.659 237.552 347.453 237.346C347.246 237.139 347.13 236.859 347.13 236.566C347.13 236.274 347.246 235.994 347.453 235.787C347.659 235.58 347.94 235.464 348.232 235.464H408.093C408.385 235.464 408.665 235.58 408.872 235.787C409.078 235.994 409.195 236.274 409.195 236.566C409.195 236.859 409.078 237.139 408.872 237.346C408.665 237.552 408.385 237.668 408.093 237.668H408.048Z" fill="#EFF5F5"/>
<path d="M316.142 244.864H278.079C277.786 244.864 277.506 244.748 277.299 244.542C277.093 244.335 276.977 244.055 276.977 243.762C276.977 243.47 277.093 243.19 277.299 242.983C277.506 242.777 277.786 242.66 278.079 242.66H316.142C316.434 242.66 316.714 242.777 316.921 242.983C317.128 243.19 317.244 243.47 317.244 243.762C317.244 244.055 317.128 244.335 316.921 244.542C316.714 244.748 316.434 244.864 316.142 244.864Z" fill="#263238"/>
<path d="M361.456 244.864H323.988C323.696 244.864 323.416 244.748 323.209 244.542C323.002 244.335 322.886 244.055 322.886 243.762C322.886 243.47 323.002 243.19 323.209 242.983C323.416 242.777 323.696 242.66 323.988 242.66H361.456C361.749 242.66 362.029 242.777 362.235 242.983C362.442 243.19 362.558 243.47 362.558 243.762C362.558 244.055 362.442 244.335 362.235 244.542C362.029 244.748 361.749 244.864 361.456 244.864Z" fill="#EFF5F5"/>
<path d="M408.048 244.864H367.583C367.291 244.864 367.01 244.748 366.804 244.542C366.597 244.335 366.481 244.055 366.481 243.762C366.481 243.47 366.597 243.19 366.804 242.983C367.01 242.777 367.291 242.66 367.583 242.66H408.048C408.341 242.66 408.621 242.777 408.828 242.983C409.034 243.19 409.15 243.47 409.15 243.762C409.15 244.055 409.034 244.335 408.828 244.542C408.621 244.748 408.341 244.864 408.048 244.864Z" fill="#263238"/>
<path d="M319.668 252.06H296.824C296.531 252.06 296.251 251.944 296.044 251.738C295.838 251.531 295.722 251.251 295.722 250.958C295.722 250.666 295.838 250.386 296.044 250.179C296.251 249.973 296.531 249.856 296.824 249.856H319.668C319.96 249.856 320.241 249.973 320.447 250.179C320.654 250.386 320.77 250.666 320.77 250.958C320.77 251.251 320.654 251.531 320.447 251.738C320.241 251.944 319.96 252.06 319.668 252.06Z" fill="#263238"/>
<path d="M352.023 252.06H327.084C326.792 252.06 326.512 251.944 326.305 251.738C326.099 251.531 325.982 251.251 325.982 250.958C325.982 250.666 326.099 250.386 326.305 250.179C326.512 249.973 326.792 249.856 327.084 249.856H352.023C352.315 249.856 352.595 249.973 352.802 250.179C353.009 250.386 353.125 250.666 353.125 250.958C353.125 251.251 353.009 251.531 352.802 251.738C352.595 251.944 352.315 252.06 352.023 252.06Z" fill="#263238"/>
<g opacity="0.2">
<path d="M398.13 252.06H357.687C357.395 252.06 357.114 251.944 356.908 251.738C356.701 251.531 356.585 251.251 356.585 250.958C356.585 250.666 356.701 250.386 356.908 250.179C357.114 249.973 357.395 249.856 357.687 249.856H398.13C398.423 249.856 398.703 249.973 398.91 250.179C399.116 250.386 399.232 250.666 399.232 250.958C399.232 251.251 399.116 251.531 398.91 251.738C398.703 251.944 398.423 252.06 398.13 252.06Z" fill="#263238"/>
</g>
<g opacity="0.2">
<path d="M308.813 259.256H278.079C277.786 259.256 277.506 259.14 277.299 258.934C277.093 258.727 276.977 258.447 276.977 258.154C276.977 257.862 277.093 257.582 277.299 257.375C277.506 257.169 277.786 257.052 278.079 257.052H308.813C309.106 257.052 309.386 257.169 309.593 257.375C309.799 257.582 309.915 257.862 309.915 258.154C309.915 258.447 309.799 258.727 309.593 258.934C309.386 259.14 309.106 259.256 308.813 259.256Z" fill="#263238"/>
</g>
<path d="M312.659 266.442H278.079C277.786 266.442 277.506 266.325 277.299 266.119C277.093 265.912 276.977 265.632 276.977 265.34C276.977 265.047 277.093 264.767 277.299 264.56C277.506 264.354 277.786 264.238 278.079 264.238H312.659C312.952 264.238 313.232 264.354 313.439 264.56C313.645 264.767 313.761 265.047 313.761 265.34C313.761 265.632 313.645 265.912 313.439 266.119C313.232 266.325 312.952 266.442 312.659 266.442Z" fill="#EFF5F5"/>
<path d="M370.426 266.442H318.324C318.031 266.442 317.751 266.325 317.544 266.119C317.338 265.912 317.222 265.632 317.222 265.34C317.222 265.047 317.338 264.767 317.544 264.56C317.751 264.354 318.031 264.238 318.324 264.238H370.426C370.719 264.238 370.999 264.354 371.205 264.56C371.412 264.767 371.528 265.047 371.528 265.34C371.528 265.632 371.412 265.912 371.205 266.119C370.999 266.325 370.719 266.442 370.426 266.442Z" fill="#263238"/>
<path d="M408.048 266.442H376.741C376.448 266.442 376.168 266.325 375.961 266.119C375.755 265.912 375.639 265.632 375.639 265.34C375.639 265.047 375.755 264.767 375.961 264.56C376.168 264.354 376.448 264.238 376.741 264.238H408.048C408.341 264.238 408.621 264.354 408.828 264.56C409.034 264.767 409.15 265.047 409.15 265.34C409.15 265.632 409.034 265.912 408.828 266.119C408.621 266.325 408.341 266.442 408.048 266.442Z" fill="#263238"/>
<g opacity="0.2">
<path d="M308.902 273.638H289.066C288.774 273.638 288.493 273.521 288.287 273.315C288.08 273.108 287.964 272.828 287.964 272.536C287.964 272.243 288.08 271.963 288.287 271.756C288.493 271.55 288.774 271.434 289.066 271.434H308.902C309.194 271.434 309.474 271.55 309.681 271.756C309.888 271.963 310.004 272.243 310.004 272.536C310.004 272.828 309.888 273.108 309.681 273.315C309.474 273.521 309.194 273.638 308.902 273.638Z" fill="#263238"/>
</g>
<g opacity="0.2">
<path d="M353.632 273.638H315.657C315.364 273.638 315.084 273.521 314.877 273.315C314.671 273.108 314.555 272.828 314.555 272.536C314.555 272.243 314.671 271.963 314.877 271.756C315.084 271.55 315.364 271.434 315.657 271.434H353.632C353.924 271.434 354.204 271.55 354.411 271.756C354.618 271.963 354.734 272.243 354.734 272.536C354.734 272.828 354.618 273.108 354.411 273.315C354.204 273.521 353.924 273.638 353.632 273.638Z" fill="#263238"/>
</g>
<path d="M398.131 273.638H361.048C360.756 273.638 360.476 273.521 360.269 273.315C360.062 273.108 359.946 272.828 359.946 272.536C359.946 272.243 360.062 271.963 360.269 271.756C360.476 271.55 360.756 271.434 361.048 271.434H398.131C398.423 271.434 398.703 271.55 398.91 271.756C399.116 271.963 399.233 272.243 399.233 272.536C399.233 272.828 399.116 273.108 398.91 273.315C398.703 273.521 398.423 273.638 398.131 273.638Z" fill="#263238"/>
<path d="M323.47 280.834H300.13C299.838 280.834 299.557 280.718 299.351 280.511C299.144 280.304 299.028 280.024 299.028 279.732C299.028 279.439 299.144 279.159 299.351 278.952C299.557 278.746 299.838 278.63 300.13 278.63H323.47C323.762 278.63 324.043 278.746 324.249 278.952C324.456 279.159 324.572 279.439 324.572 279.732C324.572 280.024 324.456 280.304 324.249 280.511C324.043 280.718 323.762 280.834 323.47 280.834Z" fill="#263238"/>
<g opacity="0.2">
<path d="M350.491 280.834H328.264C327.971 280.834 327.691 280.718 327.484 280.511C327.278 280.304 327.162 280.024 327.162 279.732C327.162 279.439 327.278 279.159 327.484 278.952C327.691 278.746 327.971 278.63 328.264 278.63H350.491C350.783 278.63 351.064 278.746 351.27 278.952C351.477 279.159 351.593 279.439 351.593 279.732C351.593 280.024 351.477 280.304 351.27 280.511C351.064 280.718 350.783 280.834 350.491 280.834Z" fill="#263238"/>
</g>
<path d="M398.131 280.834H357.467C357.174 280.834 356.894 280.718 356.687 280.511C356.481 280.304 356.365 280.024 356.365 279.732C356.365 279.439 356.481 279.159 356.687 278.952C356.894 278.746 357.174 278.63 357.467 278.63H398.131C398.423 278.63 398.703 278.746 398.91 278.952C399.116 279.159 399.233 279.439 399.233 279.732C399.233 280.024 399.116 280.304 398.91 280.511C398.703 280.718 398.423 280.834 398.131 280.834Z" fill="#EFF5F5"/>
<g opacity="0.2">
<path d="M328.661 288.03H300.13C299.838 288.03 299.557 287.914 299.351 287.707C299.144 287.5 299.028 287.22 299.028 286.928C299.028 286.635 299.144 286.355 299.351 286.148C299.557 285.942 299.838 285.826 300.13 285.826H328.661C328.953 285.826 329.233 285.942 329.44 286.148C329.647 286.355 329.763 286.635 329.763 286.928C329.763 287.22 329.647 287.5 329.44 287.707C329.233 287.914 328.953 288.03 328.661 288.03Z" fill="#263238"/>
</g>
<path opacity="0.4" d="M413.25 203.374C413.25 203.749 413.361 204.116 413.57 204.428C413.779 204.74 414.076 204.983 414.423 205.126C414.77 205.269 415.151 205.306 415.519 205.232C415.887 205.158 416.225 204.977 416.49 204.71C416.754 204.444 416.934 204.105 417.006 203.737C417.078 203.369 417.039 202.987 416.893 202.641C416.748 202.295 416.504 202 416.191 201.793C415.877 201.586 415.51 201.476 415.134 201.479C414.886 201.479 414.64 201.528 414.411 201.623C414.181 201.718 413.973 201.858 413.798 202.034C413.623 202.211 413.484 202.42 413.39 202.649C413.296 202.879 413.249 203.126 413.25 203.374Z" fill="white"/>
<path opacity="0.4" d="M408.567 205.258C409.607 205.258 410.451 204.415 410.451 203.374C410.451 202.333 409.607 201.49 408.567 201.49C407.526 201.49 406.682 202.333 406.682 203.374C406.682 204.415 407.526 205.258 408.567 205.258Z" fill="white"/>
<path opacity="0.4" d="M401.943 205.258C402.984 205.258 403.828 204.415 403.828 203.374C403.828 202.333 402.984 201.49 401.943 201.49C400.903 201.49 400.059 202.333 400.059 203.374C400.059 204.415 400.903 205.258 401.943 205.258Z" fill="white"/>
<path d="M124.812 205.435H93.1629C91.8826 205.433 90.6147 205.684 89.4315 206.173C88.2483 206.662 87.1731 207.379 86.2673 208.284C85.3616 209.189 84.643 210.263 84.1528 211.446C83.6625 212.629 83.4102 213.896 83.4102 215.176V242.726C83.4087 244.007 83.6596 245.275 84.1485 246.458C84.6375 247.641 85.3548 248.716 86.2595 249.622C87.1643 250.528 88.2387 251.246 89.4213 251.737C90.6039 252.227 91.8716 252.479 93.1518 252.479H115.6L122.212 261.174V252.479H124.801C127.388 252.479 129.868 251.452 131.697 249.623C133.526 247.794 134.554 245.313 134.554 242.726V215.176C134.554 212.593 133.528 210.115 131.701 208.288C129.874 206.461 127.396 205.435 124.812 205.435Z" fill="#EFF5F5"/>
<path opacity="0.7" d="M124.812 205.435H93.1629C91.8826 205.433 90.6147 205.684 89.4315 206.173C88.2483 206.662 87.1731 207.379 86.2673 208.284C85.3616 209.189 84.643 210.263 84.1528 211.446C83.6625 212.629 83.4102 213.896 83.4102 215.176V242.726C83.4087 244.007 83.6596 245.275 84.1485 246.458C84.6375 247.641 85.3548 248.716 86.2595 249.622C87.1643 250.528 88.2387 251.246 89.4213 251.737C90.6039 252.227 91.8716 252.479 93.1518 252.479H115.6L122.212 261.174V252.479H124.801C127.388 252.479 129.868 251.452 131.697 249.623C133.526 247.794 134.554 245.313 134.554 242.726V215.176C134.554 212.593 133.528 210.115 131.701 208.288C129.874 206.461 127.396 205.435 124.812 205.435Z" fill="white"/>
<path d="M107.335 235.828C107.125 235.827 106.919 235.781 106.729 235.694C106.539 235.606 106.369 235.479 106.233 235.321L100.072 228.114C99.9493 227.969 99.856 227.802 99.7978 227.621C99.7395 227.44 99.7174 227.25 99.7328 227.06C99.7481 226.871 99.8006 226.687 99.8872 226.518C99.9739 226.349 100.093 226.198 100.238 226.075C100.382 225.952 100.55 225.859 100.731 225.801C100.911 225.742 101.102 225.72 101.291 225.736C101.481 225.751 101.665 225.804 101.834 225.89C102.003 225.977 102.153 226.096 102.276 226.241L107.335 232.213L115.699 222.362C115.95 222.084 116.299 221.915 116.672 221.891C117.046 221.866 117.414 221.987 117.7 222.228C117.986 222.47 118.167 222.813 118.205 223.185C118.242 223.557 118.134 223.93 117.903 224.224L108.437 235.343C108.299 235.498 108.129 235.622 107.938 235.706C107.748 235.79 107.542 235.831 107.335 235.828Z" fill="white"/>
<path d="M120.092 239.94C126.229 233.803 126.229 223.853 120.092 217.716C113.955 211.579 104.006 211.579 97.8687 217.716C91.7318 223.853 91.7318 233.803 97.8687 239.94C104.006 246.077 113.955 246.077 120.092 239.94Z" fill="#EFF5F5"/>
<path d="M225.601 400.555L249.261 399.398L246.958 419.972C246.958 419.972 230.538 423.102 223.21 411.421L225.601 400.555Z" fill="#F7A9A0"/>
<path d="M264.513 406.572L259.125 421.493L246.958 419.972L249.262 399.398L264.513 406.572Z" fill="#F7A9A0"/>
<path d="M202.889 433.945C211.899 429.241 220.11 423.145 227.222 415.884L225.602 400.555C203.242 403.861 190.338 408.588 190.338 408.588C190.338 408.588 198.625 378.89 191.043 368.068L170.226 371.837C170.226 371.837 148.109 417.812 162.986 433.945H202.889Z" fill="#EFF5F5"/>
<path opacity="0.7" d="M202.856 433.945C211.87 429.242 220.089 423.151 227.21 415.895L225.602 400.544C203.958 403.718 191.164 408.258 190.338 408.555C190.613 407.453 198.448 378.68 191.021 368.057L170.204 371.826C165.924 381.058 162.526 390.673 160.055 400.544C157.079 413.096 156.209 426.617 162.975 433.945H202.856Z" fill="white"/>
<path opacity="0.2" d="M185.742 433.946C193.093 387.375 186.58 375.54 186.58 375.54L160.132 400.522C157.156 413.074 156.286 426.595 163.052 433.924L185.742 433.946Z" fill="black"/>
<path d="M181.147 433.945C186.106 410.407 191.671 373.556 191.065 368.068C190.183 360.089 146.786 325.905 109.12 350.789C101.406 355.869 97.4719 410.671 96.1274 433.945H181.147Z" fill="#EFF5F5"/>
<path opacity="0.7" d="M181.147 433.946C186.106 410.407 191.671 373.545 191.065 368.057C190.183 360.089 146.775 325.905 109.109 350.8C106.321 352.662 104.029 361.07 102.133 372.178C99.6208 387.298 97.8796 407.376 96.8437 422.518C96.5572 426.805 96.3148 430.684 96.1274 433.946H181.147Z" fill="white"/>
<path d="M162.556 249.658C149.497 244.379 118.707 263.323 116.007 297.099C113.308 330.875 130.433 321.519 130.433 321.519C130.433 321.519 133.485 334.402 145.96 330.424C145.96 330.424 156.264 342.094 165.851 337.344C165.851 337.344 177.786 349.775 184.188 343.218C184.188 343.218 191.153 351.163 197.511 345.146C203.87 339.129 222.042 277.704 193.533 263.499C165.024 249.294 162.556 249.658 162.556 249.658Z" fill="#263238"/>
<path d="M162.578 387.904L161.322 387.794C162.776 371.528 159.195 364.332 159.118 364.266L160.22 363.682C160.429 363.935 164.066 371.175 162.578 387.904Z" fill="#263238"/>
<path d="M168.485 388.047C159.834 367.671 169.587 362.922 169.984 362.701L170.502 363.803L170.237 363.23L170.502 363.803C170.414 363.803 161.509 368.31 169.642 387.485L168.485 388.047Z" fill="#263238"/>
<path d="M160.033 367.561C160.033 367.561 143.337 354.337 117.418 346.888L109.098 350.789C109.098 350.789 95.1468 333.52 118.399 327.867C141.651 322.214 173.279 337.785 181.213 351.119C189.147 364.453 167.416 368.751 167.416 368.751C167.416 368.751 165.421 366.04 160.033 367.561Z" fill="#EFF5F5"/>
<path opacity="0.6" d="M160.033 367.561C160.033 367.561 143.337 354.337 117.418 346.888L109.098 350.789C109.098 350.789 95.1468 333.52 118.399 327.867C141.651 322.214 173.279 337.785 181.213 351.119C189.147 364.453 167.416 368.751 167.416 368.751C167.416 368.751 165.421 366.04 160.033 367.561Z" fill="white"/>
<path d="M170.105 387.805C170.105 388.023 170.04 388.236 169.919 388.417C169.798 388.598 169.626 388.739 169.425 388.823C169.223 388.906 169.002 388.928 168.788 388.885C168.574 388.843 168.378 388.738 168.224 388.584C168.07 388.43 167.965 388.233 167.922 388.02C167.88 387.806 167.901 387.584 167.985 387.383C168.068 387.182 168.209 387.009 168.391 386.888C168.572 386.767 168.785 386.703 169.003 386.703C169.295 386.703 169.575 386.819 169.782 387.025C169.989 387.232 170.105 387.512 170.105 387.805Z" fill="white"/>
<path d="M162.953 387.805C162.953 388.023 162.888 388.236 162.767 388.417C162.646 388.598 162.474 388.739 162.273 388.823C162.071 388.906 161.85 388.928 161.636 388.885C161.422 388.843 161.226 388.738 161.072 388.584C160.918 388.43 160.813 388.233 160.77 388.02C160.728 387.806 160.749 387.584 160.833 387.383C160.916 387.182 161.058 387.009 161.239 386.888C161.42 386.767 161.633 386.703 161.851 386.703C162.143 386.703 162.424 386.819 162.63 387.025C162.837 387.232 162.953 387.512 162.953 387.805Z" fill="white"/>
<path d="M151.161 305.254C150.147 317.078 146.522 338.127 136.901 342.722C136.901 342.722 147.657 344.926 164.451 366.206C174.006 359.505 170.391 354.932 170.391 354.932C159.217 347.604 162.115 338.567 166.633 330.688L151.161 305.254Z" fill="#F7A9A0"/>
<path opacity="0.2" d="M157.454 315.624L166.611 330.721C165.518 332.544 164.592 334.462 163.845 336.452C159.437 334.093 154.611 326.622 155.525 321.508C155.81 319.447 156.464 317.454 157.454 315.624Z" fill="black"/>
<path d="M149.872 280.25C146.797 298.829 145.1 306.609 151.988 318.566C162.336 336.562 185.268 337.41 193.698 320.395C201.28 305.078 205.038 277.263 189.213 264.987C173.598 252.887 152.924 261.659 149.872 280.25Z" fill="#F7A9A0"/>
<path d="M187.924 254.639C199.969 261.317 211.441 282.189 194.305 276.976C191.715 281.991 182.491 277.395 177.125 271.378C176.221 275.555 166.347 279.743 159.074 273.274C162.589 278.343 156.605 291.137 150.379 288.933C144.153 286.729 130.18 283.831 142.555 264.105C154.93 244.379 175.064 247.487 187.924 254.639Z" fill="#263238"/>
<path d="M183.538 297.782C183.538 297.782 184.64 305.155 186.734 309.155C184.387 310.51 181.224 308.703 181.224 308.703L183.538 297.782Z" fill="#D58745"/>
<path d="M171.526 312.009C172.308 312.391 173.124 312.701 173.962 312.935C174.018 312.951 174.078 312.956 174.136 312.947C174.194 312.939 174.25 312.919 174.3 312.888C174.35 312.857 174.393 312.815 174.426 312.766C174.459 312.718 174.481 312.662 174.491 312.604C174.521 312.483 174.502 312.355 174.438 312.247C174.374 312.14 174.27 312.062 174.149 312.031C172.253 311.5 170.5 310.55 169.02 309.251C167.54 307.952 166.371 306.338 165.598 304.527C165.581 304.468 165.553 304.414 165.515 304.366C165.477 304.319 165.43 304.279 165.377 304.251C165.323 304.222 165.265 304.204 165.204 304.198C165.144 304.193 165.083 304.2 165.025 304.218C164.913 304.265 164.824 304.353 164.777 304.464C164.729 304.575 164.727 304.701 164.771 304.813C166.061 307.961 168.466 310.523 171.526 312.009Z" fill="#263238"/>
<path d="M140.494 293.606C141.533 297.469 144.061 300.762 147.525 302.763C152.01 305.221 155.239 301.011 154.908 295.777C154.567 291.049 151.812 284.085 146.897 283.809C141.982 283.534 139.161 288.724 140.494 293.606Z" fill="#F7A9A0"/>
<path d="M170.259 280.756C170.37 280.808 170.49 280.834 170.612 280.834C170.734 280.834 170.854 280.808 170.964 280.756C171.942 280.214 173.039 279.92 174.157 279.9C175.276 279.881 176.382 280.137 177.378 280.646C177.477 280.71 177.588 280.751 177.704 280.769C177.82 280.787 177.939 280.78 178.052 280.749C178.166 280.717 178.271 280.663 178.362 280.588C178.453 280.514 178.527 280.421 178.579 280.316C178.688 280.094 178.711 279.839 178.644 279.601C178.577 279.363 178.424 279.159 178.216 279.026C176.972 278.345 175.578 277.988 174.16 277.988C172.743 277.988 171.348 278.345 170.105 279.026C169.896 279.151 169.743 279.35 169.678 279.584C169.612 279.818 169.639 280.068 169.752 280.283C169.859 280.496 170.039 280.664 170.259 280.756Z" fill="#263238"/>
<path d="M199.87 288.008C199.969 288.064 200.079 288.1 200.193 288.111C200.307 288.122 200.422 288.11 200.531 288.074C200.646 288.035 200.751 287.974 200.842 287.895C200.933 287.815 201.006 287.717 201.059 287.608C201.111 287.5 201.141 287.381 201.147 287.26C201.153 287.14 201.135 287.019 201.093 286.906C200.691 285.474 199.963 284.154 198.967 283.049C197.971 281.944 196.734 281.084 195.351 280.536C195.238 280.496 195.117 280.48 194.997 280.491C194.877 280.502 194.761 280.538 194.657 280.598C194.552 280.657 194.462 280.739 194.391 280.837C194.321 280.934 194.273 281.046 194.249 281.164C194.192 281.403 194.226 281.656 194.344 281.871C194.462 282.087 194.656 282.252 194.889 282.332C195.978 282.783 196.95 283.477 197.729 284.361C198.509 285.246 199.075 286.297 199.385 287.435C199.423 287.557 199.486 287.672 199.57 287.77C199.653 287.868 199.755 287.949 199.87 288.008Z" fill="#263238"/>
<path d="M176.188 292.911C175.648 294.388 174.414 295.281 173.433 294.917C172.452 294.553 172.1 293.077 172.64 291.611C173.18 290.145 174.414 289.242 175.384 289.605C176.353 289.969 176.717 291.446 176.188 292.911Z" fill="#263238"/>
<path d="M174.954 289.528L178.612 289.451C178.612 289.451 176.034 291.545 174.954 289.528Z" fill="#263238"/>
<path d="M194.691 298.785C194.151 300.251 192.916 301.143 191.947 300.791C190.977 300.438 190.602 298.939 191.142 297.485C191.682 296.03 192.916 295.127 193.897 295.479C194.878 295.832 195.23 297.308 194.691 298.785Z" fill="#263238"/>
<path d="M193.467 295.391L197.115 295.314C197.115 295.314 194.536 297.419 193.467 295.391Z" fill="#263238"/>
<path d="M174.447 303.326C173.308 303.329 172.182 303.092 171.141 302.631C170.039 302.126 169.061 301.387 168.273 300.466C167.486 299.545 166.907 298.464 166.579 297.298C165.868 294.783 166.063 292.098 167.128 289.712C168.193 287.326 170.062 285.389 172.408 284.239C173.495 283.695 174.689 283.4 175.904 283.373C177.119 283.347 178.325 283.59 179.435 284.085C180.545 284.581 181.531 285.316 182.322 286.238C183.114 287.16 183.691 288.246 184.012 289.418C184.745 291.931 184.545 294.623 183.45 297C182.416 299.416 180.541 301.374 178.172 302.51C177.004 303.05 175.733 303.329 174.447 303.326ZM176.177 284.647C175.08 284.676 174.002 284.939 173.014 285.418C170.945 286.442 169.297 288.155 168.356 290.264C167.414 292.372 167.238 294.743 167.857 296.967C168.122 297.968 168.608 298.898 169.279 299.687C169.95 300.476 170.79 301.105 171.735 301.527C172.681 301.95 173.709 302.156 174.745 302.129C175.78 302.103 176.797 301.845 177.72 301.375C179.806 300.377 181.461 298.659 182.381 296.537L182.954 296.791L182.381 296.537C183.35 294.433 183.526 292.05 182.877 289.826C182.601 288.831 182.11 287.908 181.44 287.122C180.77 286.336 179.937 285.705 178.998 285.275C178.116 284.86 177.152 284.645 176.177 284.647Z" fill="#263238"/>
<path d="M192.784 308.946C191.645 308.956 190.517 308.719 189.478 308.251C188.376 307.745 187.397 307.006 186.608 306.085C185.818 305.164 185.237 304.084 184.905 302.918C184.2 300.402 184.398 297.718 185.464 295.333C186.531 292.947 188.4 291.011 190.745 289.859C191.831 289.313 193.025 289.016 194.24 288.989C195.455 288.961 196.66 289.204 197.77 289.7C198.88 290.195 199.865 290.932 200.655 291.855C201.445 292.778 202.02 293.866 202.338 295.038C203.081 297.549 202.885 300.243 201.787 302.62C201.043 304.421 199.801 305.973 198.207 307.094C196.612 308.214 194.731 308.856 192.784 308.946ZM194.536 290.212C193.424 290.219 192.326 290.467 191.318 290.939C189.234 291.945 187.58 293.665 186.657 295.788C185.682 297.886 185.506 300.269 186.161 302.488C186.437 303.484 186.928 304.409 187.597 305.197C188.267 305.985 189.101 306.617 190.04 307.05C193.897 308.78 198.68 306.532 200.685 302.058C201.649 299.953 201.825 297.571 201.181 295.347C200.903 294.353 200.412 293.431 199.742 292.645C199.072 291.859 198.24 291.228 197.302 290.796C196.426 290.431 195.485 290.251 194.536 290.267V290.212Z" fill="#263238"/>
<path d="M184.916 297.452C184.891 297.373 184.85 297.301 184.795 297.24C184.74 297.179 184.672 297.131 184.596 297.099C184.112 297.015 183.614 297.088 183.175 297.308L182.624 296.206C183.372 295.824 184.236 295.733 185.048 295.953C185.302 296.043 185.533 296.188 185.724 296.379C185.915 296.57 186.06 296.801 186.15 297.055L184.916 297.452Z" fill="#263238"/>
<path d="M154.778 285.659L154.401 286.865L169.318 291.527L169.694 290.321L154.778 285.659Z" fill="#263238"/>
<path opacity="0.2" d="M151.283 401.635C151.283 401.635 122.289 423.851 96.8438 422.573C97.8796 407.431 99.6208 387.309 102.133 372.234C104.734 369.368 106.442 367.627 106.442 367.627L121.87 379.165L118.112 383.882C118.112 383.882 141.464 382.692 149.596 383.882L151.283 401.635Z" fill="black"/>
<path d="M154.28 383.826L177.488 379.088L178.315 399.783C178.315 399.783 162.567 405.36 153.553 394.924L154.28 383.826Z" fill="#F7A9A0"/>
<path d="M193.644 383.893L190.58 399.453L178.315 399.794L177.488 379.099L193.644 383.893Z" fill="#F7A9A0"/>
<path d="M154.28 383.826L155.415 399.794L149.641 402.384L147.172 383.826H154.28Z" fill="#EFF5F5"/>
<path opacity="0.6" d="M154.28 383.826L155.415 399.794L149.641 402.384L147.172 383.826H154.28Z" fill="white"/>
<path d="M117.418 346.887C111.191 347.987 105.551 351.25 101.494 356.1C94.4966 364.321 69.8338 388.741 75.3108 408.677C80.7877 428.612 133.529 413.779 149.641 402.384L147.172 383.826L110.641 386.504L121.903 379.088C129.628 357.599 117.418 346.887 117.418 346.887Z" fill="#EFF5F5"/>
<path opacity="0.7" d="M117.418 346.887C111.191 347.987 105.551 351.25 101.494 356.1C94.4966 364.321 69.8338 388.741 75.3108 408.677C80.7877 428.612 133.529 413.779 149.641 402.384L147.172 383.826L110.641 386.504L121.903 379.088C129.628 357.599 117.418 346.887 117.418 346.887Z" fill="white"/>
<path d="M223.221 400.907L229.866 399.794V417.603L224.599 418.462L223.221 400.907Z" fill="#EFF5F5"/>
<path opacity="0.6" d="M223.221 400.907L229.866 399.794V417.603L224.599 418.462L223.221 400.907Z" fill="white"/>
<path d="M209.788 417.426C209.769 416.451 209.817 415.475 209.931 414.506L210.129 413.04L208.708 413.878L207.859 414.385C207.58 414.511 207.293 414.617 207 414.704C206.498 414.863 205.959 414.863 205.457 414.704C204.972 414.525 204.545 414.216 204.223 413.812C203.85 413.365 203.556 412.858 203.352 412.313L202.107 408.842L201.225 412.522C201.137 412.886 201.082 413.261 201.016 413.624C200.95 413.988 200.796 414.308 200.696 414.649C200.485 415.199 200.132 415.682 199.671 416.049C199.157 416.313 198.559 416.365 198.007 416.192C197.313 416.01 196.651 415.72 196.046 415.333L194.128 414.131L194.9 416.082C195.234 416.911 195.499 417.766 195.693 418.639C195.79 419.074 195.849 419.516 195.87 419.961C195.918 420.414 195.818 420.871 195.583 421.261C195.97 420.951 196.235 420.514 196.332 420.027C196.459 419.552 196.525 419.064 196.531 418.572C196.553 418.187 196.553 417.801 196.531 417.415C196.851 417.597 197.183 417.759 197.523 417.9C198.023 418.105 198.56 418.204 199.101 418.191C199.642 418.177 200.174 418.052 200.663 417.823C201.595 417.3 202.322 416.477 202.724 415.487V415.344C203.32 416.022 204.119 416.491 205.003 416.68C205.886 416.868 206.807 416.767 207.628 416.391C207.952 416.244 208.265 416.074 208.565 415.884C208.565 415.884 208.565 415.961 208.565 416.005C208.644 416.524 208.75 417.039 208.884 417.548C209.018 418.06 209.203 418.559 209.435 419.035C209.655 419.515 209.984 419.937 210.394 420.27C210.147 419.838 209.986 419.363 209.92 418.87C209.844 418.392 209.8 417.91 209.788 417.426Z" fill="#EFF5F5"/>
<path d="M249.206 392.565C248.348 392.649 247.482 392.555 246.661 392.29C245.815 392.039 245.01 391.667 244.27 391.188C243.567 390.666 242.965 390.02 242.495 389.281C241.998 388.548 241.602 387.751 241.316 386.912L240.589 384.708L239.355 386.659C238.827 387.477 238.189 388.218 237.459 388.863C236.866 389.449 236.086 389.808 235.255 389.876H234.991L234.66 389.81C234.429 389.81 234.208 389.7 233.977 389.645C233.516 389.494 233.07 389.302 232.643 389.072C231.781 388.589 230.984 387.996 230.274 387.309L228.357 385.468L228.753 387.992C228.975 389.339 229.06 390.705 229.007 392.069C228.985 392.711 228.855 393.345 228.621 393.943C228.517 394.204 228.328 394.423 228.084 394.563C227.839 394.703 227.555 394.756 227.277 394.714H226.781L226.935 395.122C227.258 395.952 227.589 396.779 227.927 397.601C227.828 396.863 227.706 396.125 227.574 395.397H227.784C228.003 395.381 228.221 395.344 228.434 395.287C228.636 395.183 228.831 395.065 229.018 394.935C229.161 394.78 229.315 394.615 229.448 394.45C229.871 393.779 230.152 393.029 230.274 392.246C230.413 391.519 230.494 390.782 230.517 390.042C230.869 390.333 231.237 390.606 231.619 390.857C232.136 391.175 232.682 391.445 233.25 391.662C233.856 391.913 234.501 392.059 235.156 392.091C236.519 392.072 237.828 391.555 238.837 390.637C239.269 390.274 239.671 389.876 240.038 389.447C240.254 389.826 240.489 390.194 240.743 390.549C241.402 391.459 242.224 392.24 243.168 392.852C244.108 393.423 245.141 393.826 246.22 394.042C246.913 394.177 247.62 394.228 248.325 394.196C248.237 394.417 248.138 394.637 248.06 394.868C247.867 395.504 247.716 396.152 247.609 396.808C247.491 397.466 247.462 398.137 247.52 398.803C247.554 399.466 247.755 400.111 248.104 400.676C247.915 400.074 247.866 399.437 247.961 398.814C248.044 398.195 248.188 397.586 248.391 396.995C248.814 395.844 249.349 394.736 249.989 393.689L250.683 392.51L249.206 392.565Z" fill="#EFF5F5"/>
<path d="M469.672 457.694L83.2007 457.694C81.903 457.694 80.6584 457.178 79.7408 456.261C78.8233 455.343 78.3078 454.098 78.3078 452.801V440.899L474.565 440.899V452.801C474.565 454.098 474.049 455.343 473.132 456.261C472.214 457.178 470.97 457.694 469.672 457.694Z" fill="#EFF5F5"/>
<path opacity="0.2" d="M78.2968 449.285L474.565 449.285V440.888L78.2968 440.888V449.285Z" fill="black"/>
<path d="M69.9989 443.081H482.874C484.129 443.081 485.333 442.583 486.221 441.697C487.109 440.811 487.61 439.608 487.613 438.354C487.613 437.097 487.114 435.892 486.225 435.003C485.336 434.114 484.131 433.615 482.874 433.615H69.9989C68.7421 433.615 67.5368 434.114 66.6482 435.003C65.7595 435.892 65.2603 437.097 65.2603 438.354C65.2632 439.608 65.7637 440.811 66.652 441.697C67.5404 442.583 68.744 443.081 69.9989 443.081Z" fill="#EFF5F5"/>
<path d="M454.895 375.782L442.839 430.463C442.618 431.339 442.116 432.118 441.409 432.68C440.702 433.242 439.829 433.555 438.927 433.571H373.071C372.661 433.56 372.259 433.455 371.897 433.263C371.535 433.071 371.222 432.798 370.983 432.465C370.744 432.132 370.585 431.748 370.519 431.344C370.453 430.939 370.482 430.525 370.603 430.133L382.636 375.87C382.883 375.044 383.407 374.327 384.119 373.839C384.831 373.352 385.688 373.124 386.548 373.192H452.404C454.167 373.237 455.28 374.041 454.895 375.782Z" fill="#263238"/>
<path opacity="0.4" d="M454.894 375.782L442.839 430.463C442.618 431.339 442.116 432.118 441.409 432.68C440.702 433.241 439.829 433.555 438.926 433.571H375.308C374.897 433.562 374.494 433.458 374.131 433.267C373.767 433.075 373.452 432.803 373.212 432.469C372.972 432.136 372.812 431.752 372.746 431.346C372.679 430.941 372.707 430.525 372.829 430.133L384.884 375.87C385.126 375.04 385.648 374.32 386.361 373.831C387.075 373.343 387.935 373.117 388.796 373.192H452.404C454.167 373.236 455.28 374.041 454.894 375.782Z" fill="white"/>
<path d="M444.392 431.885L456.382 377.49C456.779 375.705 455.666 374.9 453.891 374.9H390.284C389.424 374.829 388.565 375.057 387.852 375.545C387.14 376.032 386.617 376.75 386.372 377.578L374.195 432.601L444.392 431.885Z" fill="#EFF5F5"/>
<path opacity="0.4" d="M456.382 377.479L450.057 406.219L444.381 431.885L406.803 432.271L374.206 432.59L386.328 377.578C386.569 376.75 387.089 376.031 387.801 375.543C388.512 375.055 389.37 374.828 390.229 374.9H453.914C455.677 374.9 456.779 375.716 456.382 377.479Z" fill="white"/>
<path opacity="0.2" d="M450.057 406.219L444.382 431.885L406.803 432.271H375.595L380.697 408.798C380.861 408.071 381.266 407.42 381.846 406.952C382.426 406.484 383.147 406.226 383.893 406.219H450.057Z" fill="black"/>
<path d="M451.136 409.79C450.893 408.962 450.37 408.244 449.657 407.758C448.944 407.271 448.084 407.047 447.224 407.123H383.617C381.854 407.123 380.741 407.917 381.126 409.702L385.953 431.588H375.209C374.94 431.588 374.682 431.694 374.492 431.884C374.302 432.075 374.195 432.332 374.195 432.601C374.195 432.87 374.302 433.128 374.492 433.318C374.682 433.508 374.94 433.615 375.209 433.615H453.561C453.903 433.609 454.239 433.526 454.545 433.374C454.851 433.222 455.119 433.003 455.331 432.734C455.542 432.465 455.69 432.152 455.765 431.818C455.84 431.485 455.84 431.139 455.765 430.805L451.136 409.79Z" fill="#EFF5F5"/>
<path opacity="0.4" d="M451.136 409.79C450.893 408.962 450.37 408.244 449.657 407.758C448.944 407.271 448.084 407.047 447.224 407.123H383.617C381.854 407.123 380.741 407.917 381.126 409.702L385.953 431.588H375.209C374.94 431.588 374.682 431.694 374.492 431.884C374.302 432.075 374.195 432.332 374.195 432.601C374.195 432.87 374.302 433.128 374.492 433.318C374.682 433.508 374.94 433.615 375.209 433.615H453.561C453.903 433.609 454.239 433.526 454.545 433.374C454.851 433.222 455.119 433.003 455.331 432.734C455.542 432.465 455.69 432.152 455.765 431.818C455.84 431.485 455.84 431.139 455.765 430.805L451.136 409.79Z" fill="white"/>
<path d="M373.302 423.069H369.611L369.148 425.063H372.74L373.302 423.069Z" fill="black"/>
<path d="M349.973 433.869H339.339C339.256 433.87 339.173 433.855 339.097 433.824C339.02 433.793 338.95 433.747 338.891 433.688C338.833 433.629 338.786 433.559 338.755 433.483C338.724 433.406 338.709 433.323 338.711 433.24C338.711 433.074 338.777 432.914 338.895 432.796C339.012 432.679 339.172 432.612 339.339 432.612H349.973C351.718 432.616 353.441 432.226 355.015 431.472C356.589 430.719 357.973 429.621 359.064 428.259C360.274 426.749 361.809 425.53 363.555 424.694C365.301 423.859 367.212 423.427 369.148 423.433H371.021C371.187 423.435 371.345 423.503 371.462 423.62C371.579 423.737 371.647 423.895 371.649 424.061C371.649 424.227 371.583 424.387 371.465 424.505C371.348 424.623 371.188 424.689 371.021 424.689H369.17C367.425 424.686 365.702 425.075 364.128 425.829C362.554 426.582 361.17 427.681 360.078 429.042C358.866 430.555 357.327 431.775 355.578 432.611C353.828 433.447 351.912 433.876 349.973 433.869Z" fill="black"/>
<path d="M172.771 426.088V430.684C172.771 432.755 175.273 433.615 177.345 433.615H338.876C340.926 433.615 343.361 432.755 343.361 430.684V426.088H172.771Z" fill="#263238"/>
<path opacity="0.4" d="M172.771 426.088V430.684C172.771 432.755 175.273 433.615 177.345 433.615H338.876C340.926 433.615 343.361 432.755 343.361 430.684V426.088H172.771Z" fill="white"/>
<path opacity="0.2" d="M227.805 426.088V430.684C227.805 432.755 230.263 433.615 232.334 433.615H338.876C340.925 433.615 343.361 432.755 343.361 430.684V426.088H227.805Z" fill="black"/>
<path d="M370.393 338.678L351.163 425.901C350.818 427.303 350.02 428.551 348.892 429.452C347.764 430.353 346.369 430.856 344.926 430.882H239.872C237.084 430.882 235.277 428.27 235.927 425.372L255.135 338.81C255.785 335.967 258.562 334.545 261.383 334.545H366.426C369.247 334.556 371.021 335.835 370.393 338.678Z" fill="#263238"/>
<path opacity="0.4" d="M370.393 338.678L351.163 425.901C350.818 427.303 350.02 428.551 348.892 429.452C347.764 430.353 346.369 430.856 344.926 430.882H243.443C240.622 430.882 238.847 428.27 239.476 425.372L258.705 338.81C259.334 335.967 262.133 334.545 264.954 334.545H366.426C369.247 334.556 371.021 335.835 370.393 338.678Z" fill="white"/>
<path d="M300.017 378.126C299.438 378.378 298.713 378.772 297.988 379.395C296.46 380.708 295.811 382.279 295.542 383.096C295.346 383.726 295.166 384.547 295.14 385.511C295.085 387.565 295.76 389.155 296.197 389.993C296.579 390.704 297.554 392.282 299.491 393.318C302.626 394.993 305.754 393.896 306.276 393.703L304.933 390.331C304.5 390.496 303.598 390.769 302.5 390.563C300.542 390.196 299.554 388.606 299.389 388.332C299.247 388.089 298.173 386.17 299.029 384.034C299.64 382.508 300.868 381.787 301.245 381.584L300.017 378.126Z" fill="#C8C8C8"/>
<path d="M300.702 377.869C301.101 379.008 301.499 380.147 301.898 381.286C302.092 381.212 304.391 380.389 306.424 381.825C307.895 382.864 308.696 384.697 308.379 386.516C307.959 388.927 305.812 389.956 305.619 390.045C306.079 391.156 306.539 392.267 307 393.378C307.391 393.2 307.824 392.965 308.27 392.653C309.403 391.861 310.113 390.924 310.535 390.245C311.009 390.979 311.725 391.863 312.778 392.635C313.278 393.001 315.091 394.293 317.599 394.338C317.869 394.343 318.094 394.332 318.252 394.321C318.901 394.243 321.633 393.831 323.684 391.439C325.969 388.771 325.704 385.639 325.626 384.872C325.574 384.368 325.147 380.777 321.973 378.718C319.936 377.397 317.862 377.417 317.08 377.465C316.346 377.502 314.761 377.684 313.194 378.771C312.243 379.431 311.636 380.191 311.277 380.727L312.992 385.215C313.349 383.249 314.774 381.7 316.587 381.296C318.671 380.832 320.277 382.103 320.428 382.227C322.156 383.642 322.104 385.745 322.09 386.073C322.075 386.429 321.914 388.25 320.366 389.559C320.139 389.751 318.965 390.631 317.304 390.522C316.183 390.448 315.362 389.955 314.961 389.663C314.162 389.083 313.753 388.381 312.534 385.587C311.865 384.055 311.552 383.28 311.349 382.793C309.568 378.531 307.928 374.326 306.419 370.188C305.311 370.631 304.204 371.074 303.096 371.517C303.824 373.456 304.551 375.396 305.278 377.336C304.685 377.19 304.178 377.154 303.812 377.151C302.946 377.145 302.293 377.321 301.908 377.427C301.404 377.566 300.995 377.733 300.702 377.869Z" fill="#5793C9"/>
</svg>
